<?xml version="1.0" encoding="utf-8"?>
<svg viewBox="0 0 10 9" xmlns="http://www.w3.org/2000/svg">
  <rect width="1" height="1" x="7" y="1"/>
  <rect width="1" height="1" x="1" y="1"/>
  <rect width="1" height="1" x="2" y="1"/>
  <rect width="1" height="1" x="1" y="2"/>
  <rect width="1" height="1" x="3"/>
  <rect width="1" height="1" y="3"/>
  <rect width="1" height="1" x="4"/>
  <rect width="1" height="1" x="5"/>
  <rect width="1" height="1" x="6"/>
  <rect width="1" height="1" x="8" y="1"/>
  <rect width="1" height="1" x="8" y="2"/>
  <rect width="1" height="1" x="9" y="3"/>
  <rect width="1" height="1" x="9" y="4"/>
  <rect width="1" height="1" x="9" y="5"/>
  <rect width="1" height="1" x="8" y="6"/>
  <rect width="1" height="1" x="8" y="7"/>
  <rect width="1" height="1" x="7" y="7"/>
  <rect width="1" height="1" x="6" y="8"/>
  <rect width="1" height="1" x="5" y="8"/>
  <rect width="1" height="1" x="4" y="8"/>
  <rect width="1" height="1" x="3" y="8"/>
  <rect width="1" height="1" x="2" y="7"/>
  <rect width="1" height="1" x="1" y="7"/>
  <rect width="1" height="1" x="1" y="6"/>
  <rect width="1" height="1" y="5"/>
  <rect width="1" height="1" y="4"/>
</svg>