<?xml version="1.0" encoding="utf-8"?>
<svg viewBox="0 0 10 9" xmlns="http://www.w3.org/2000/svg">
  <g transform="matrix(0.454545, 0, 0, 0.428571, 0, 0)">
    <rect width="1" height="1" x="6" style="fill: rgb(255, 0, 0);"/>
    <rect width="1" height="1" x="5" y="1" style="fill: rgb(255, 0, 0);"/>
    <rect width="1" height="1" x="4" y="2" style="fill: rgb(255, 0, 0);"/>
    <rect width="1" height="1" x="3" y="2" style="fill: rgb(255, 0, 0);"/>
    <rect width="1" height="1" x="3" y="3" style="fill: rgb(255, 0, 0);"/>
    <rect width="1" height="1" x="2" y="4" style="fill: rgb(255, 0, 0);"/>
    <rect width="1" height="1" x="1" y="5" style="fill: rgb(255, 0, 0);"/>
    <rect width="1" height="1" x="1" y="6" style="fill: rgb(255, 0, 0);"/>
    <rect width="1" height="1" y="7" style="fill: rgb(255, 0, 0);"/>
    <rect width="1" height="1" y="7" x="1" style="fill: rgb(255, 0, 0);"/>
    <rect width="1" height="1" y="7" x="2" style="fill: rgb(255, 0, 0);"/>
    <rect width="1" height="1" y="6" x="2" style="fill: rgb(255, 0, 0);"/>
    <rect width="1" height="1" y="5" x="2" style="fill: rgb(255, 0, 0);"/>
    <rect width="1" height="1" y="4" x="3" style="fill: rgb(255, 0, 0);"/>
    <rect width="1" height="1" y="3" x="4" style="fill: rgb(255, 0, 0);"/>
    <rect width="1" height="1" y="5" x="3" style="fill: rgb(255, 0, 0);"/>
    <rect width="1" height="1" y="2" x="5" style="fill: rgb(255, 0, 0);"/>
    <rect width="1" height="1" y="1" x="6" style="fill: rgb(255, 0, 0);"/>
    <rect width="1" height="1" y="2" x="6" style="fill: rgb(255, 0, 0);"/>
    <rect width="1" height="1" x="7" style="fill: rgb(255, 0, 0);"/>
    <rect width="1" height="1" y="1" x="7" style="fill: rgb(255, 0, 0);"/>
    <rect width="1" height="1" y="8" style="fill: rgb(255, 0, 0);"/>
    <rect width="1" height="1" y="8" x="1" style="fill: rgb(255, 0, 0);"/>
    <rect width="1" height="1" x="8" style="fill: rgb(255, 0, 0);"/>
    <rect width="1" height="1" x="9" style="fill: rgb(255, 0, 0);"/>
    <rect width="1" height="1" x="10" style="fill: rgb(255, 0, 0);"/>
    <rect width="1" height="1" x="11" style="fill: rgb(255, 0, 0);"/>
    <rect width="1" height="1" x="12" style="fill: rgb(255, 0, 0);"/>
    <rect width="1" height="1" x="13" style="fill: rgb(255, 0, 0);"/>
    <rect width="1" height="1" x="14" style="fill: rgb(255, 0, 0);"/>
    <rect width="1" height="1" y="1" x="8" style="fill: rgb(255, 0, 0);"/>
    <rect width="1" height="1" y="1" x="9" style="fill: rgb(255, 0, 0);"/>
    <rect width="1" height="1" y="1" x="10" style="fill: rgb(255, 0, 0);"/>
    <rect width="1" height="1" y="1" x="11" style="fill: rgb(255, 0, 0);"/>
    <rect width="1" height="1" y="1" x="12" style="fill: rgb(255, 0, 0);"/>
    <rect width="1" height="1" y="1" x="13" style="fill: rgb(255, 0, 0);"/>
    <rect width="1" height="1" y="1" x="14" style="fill: rgb(255, 0, 0);"/>
    <rect width="1" height="1" x="15" style="fill: rgb(255, 0, 0);"/>
    <rect width="1" height="1" y="1" x="15" style="fill: rgb(255, 0, 0);"/>
    <rect width="1" height="1" y="2" x="15" style="fill: rgb(255, 0, 0);"/>
    <rect width="1" height="1" y="1" x="16" style="fill: rgb(255, 0, 0);"/>
    <rect width="1" height="1" y="2" x="16" style="fill: rgb(255, 0, 0);"/>
    <rect width="1" height="1" y="2" x="17" style="fill: rgb(255, 0, 0);"/>
    <rect width="1" height="1" y="3" x="17" style="fill: rgb(255, 0, 0);"/>
    <rect width="1" height="1" y="3" x="18" style="fill: rgb(255, 0, 0);"/>
    <rect width="1" height="1" y="2" x="18" style="fill: rgb(255, 0, 0);"/>
    <rect width="1" height="1" y="4" x="18" style="fill: rgb(255, 0, 0);"/>
    <rect width="1" height="1" y="5" x="18" style="fill: rgb(255, 0, 0);"/>
    <rect width="1" height="1" y="4" x="19" style="fill: rgb(255, 0, 0);"/>
    <rect width="1" height="1" y="5" x="19" style="fill: rgb(255, 0, 0);"/>
    <rect width="1" height="1" y="6" x="19" style="fill: rgb(255, 0, 0);"/>
    <rect width="1" height="1" y="7" x="19" style="fill: rgb(255, 0, 0);"/>
    <rect width="1" height="1" y="5" x="20" style="fill: rgb(255, 0, 0);"/>
    <rect width="1" height="1" y="6" x="20" style="fill: rgb(255, 0, 0);"/>
    <rect width="1" height="1" y="7" x="20" style="fill: rgb(255, 0, 0);"/>
    <rect width="1" height="1" y="8" x="20" style="fill: rgb(255, 0, 0);"/>
    <rect width="1" height="1" y="7" x="21" style="fill: rgb(255, 0, 0);"/>
    <rect width="1" height="1" y="8" x="21" style="fill: rgb(255, 0, 0);"/>
    <rect width="1" height="1" y="9" style="fill: rgb(255, 0, 0);"/>
    <rect width="1" height="1" y="10" style="fill: rgb(255, 0, 0);"/>
    <rect width="1" height="1" y="11" style="fill: rgb(255, 0, 0);"/>
    <rect width="1" height="1" y="12" style="fill: rgb(255, 0, 0);"/>
    <rect width="1" height="1" y="9" x="1" style="fill: rgb(255, 0, 0);"/>
    <rect width="1" height="1" y="10" x="1" style="fill: rgb(255, 0, 0);"/>
    <rect width="1" height="1" y="11" x="1" style="fill: rgb(255, 0, 0);"/>
    <rect width="1" height="1" y="12" x="1" style="fill: rgb(255, 0, 0);"/>
    <rect width="1" height="1" y="13" style="fill: rgb(255, 0, 0);"/>
    <rect width="1" height="1" y="13" x="1" style="fill: rgb(255, 0, 0);"/>
    <rect width="1" height="1" y="13" x="2" style="fill: rgb(255, 0, 0);"/>
    <rect width="1" height="1" y="14" x="1" style="fill: rgb(255, 0, 0);"/>
    <rect width="1" height="1" y="15" x="1" style="fill: rgb(255, 0, 0);"/>
    <rect width="1" height="1" y="14" x="2" style="fill: rgb(255, 0, 0);"/>
    <rect width="1" height="1" y="15" x="2" style="fill: rgb(255, 0, 0);"/>
    <rect width="1" height="1" y="16" x="2" style="fill: rgb(255, 0, 0);"/>
    <rect width="1" height="1" y="15" x="3" style="fill: rgb(255, 0, 0);"/>
    <rect width="1" height="1" y="16" x="3" style="fill: rgb(255, 0, 0);"/>
    <rect width="1" height="1" y="17" x="3" style="fill: rgb(255, 0, 0);"/>
    <rect width="1" height="1" y="18" x="3" style="fill: rgb(255, 0, 0);"/>
    <rect width="1" height="1" y="17" x="4" style="fill: rgb(255, 0, 0);"/>
    <rect width="1" height="1" y="18" x="4" style="fill: rgb(255, 0, 0);"/>
    <rect width="1" height="1" y="18" x="5" style="fill: rgb(255, 0, 0);"/>
    <rect width="1" height="1" y="19" x="5" style="fill: rgb(255, 0, 0);"/>
    <rect width="1" height="1" y="18" x="6" style="fill: rgb(255, 0, 0);"/>
    <rect width="1" height="1" y="19" x="6" style="fill: rgb(255, 0, 0);"/>
    <rect width="1" height="1" y="20" x="6" style="fill: rgb(255, 0, 0);"/>
    <rect width="1" height="1" y="20" x="7" style="fill: rgb(255, 0, 0);"/>
    <rect width="1" height="1" y="19" x="7" style="fill: rgb(255, 0, 0);"/>
    <rect width="1" height="1" y="20" x="8" style="fill: rgb(255, 0, 0);"/>
    <rect width="1" height="1" y="19" x="8" style="fill: rgb(255, 0, 0);"/>
    <rect width="1" height="1" y="20" x="9" style="fill: rgb(255, 0, 0);"/>
    <rect width="1" height="1" y="19" x="9" style="fill: rgb(255, 0, 0);"/>
    <rect width="1" height="1" y="20" x="10" style="fill: rgb(255, 0, 0);"/>
    <rect width="1" height="1" y="19" x="10" style="fill: rgb(255, 0, 0);"/>
    <rect width="1" height="1" y="20" x="11" style="fill: rgb(255, 0, 0);"/>
    <rect width="1" height="1" y="19" x="11" style="fill: rgb(255, 0, 0);"/>
    <rect width="1" height="1" y="20" x="12" style="fill: rgb(255, 0, 0);"/>
    <rect width="1" height="1" y="19" x="12" style="fill: rgb(255, 0, 0);"/>
    <rect width="1" height="1" y="20" x="13" style="fill: rgb(255, 0, 0);"/>
    <rect width="1" height="1" y="19" x="13" style="fill: rgb(255, 0, 0);"/>
    <rect width="1" height="1" y="20" x="14" style="fill: rgb(255, 0, 0);"/>
    <rect width="1" height="1" y="19" x="14" style="fill: rgb(255, 0, 0);"/>
    <rect width="1" height="1" y="20" x="15" style="fill: rgb(255, 0, 0);"/>
    <rect width="1" height="1" y="19" x="15" style="fill: rgb(255, 0, 0);"/>
    <rect width="1" height="1" y="18" x="15" style="fill: rgb(255, 0, 0);"/>
    <rect width="1" height="1" y="19" x="16" style="fill: rgb(255, 0, 0);"/>
    <rect width="1" height="1" y="18" x="16" style="fill: rgb(255, 0, 0);"/>
    <rect width="1" height="1" y="18" x="17" style="fill: rgb(255, 0, 0);"/>
    <rect width="1" height="1" y="18" x="18" style="fill: rgb(255, 0, 0);"/>
    <rect width="1" height="1" y="17" x="17" style="fill: rgb(255, 0, 0);"/>
    <rect width="1" height="1" y="17" x="18" style="fill: rgb(255, 0, 0);"/>
    <rect width="1" height="1" y="16" x="18" style="fill: rgb(255, 0, 0);"/>
    <rect width="1" height="1" y="15" x="18" style="fill: rgb(255, 0, 0);"/>
    <rect width="1" height="1" y="16" x="19" style="fill: rgb(255, 0, 0);"/>
    <rect width="1" height="1" y="15" x="19" style="fill: rgb(255, 0, 0);"/>
    <rect width="1" height="1" y="14" x="19" style="fill: rgb(255, 0, 0);"/>
    <rect width="1" height="1" y="13" x="19" style="fill: rgb(255, 0, 0);"/>
    <rect width="1" height="1" y="13" x="20" style="fill: rgb(255, 0, 0);"/>
    <rect width="1" height="1" y="13" x="21" style="fill: rgb(255, 0, 0);"/>
    <rect width="1" height="1" y="12" x="20" style="fill: rgb(255, 0, 0);"/>
    <rect width="1" height="1" y="11" x="20" style="fill: rgb(255, 0, 0);"/>
    <rect width="1" height="1" y="14" x="20" style="fill: rgb(255, 0, 0);"/>
    <rect width="1" height="1" y="15" x="20" style="fill: rgb(255, 0, 0);"/>
    <rect width="1" height="1" y="12" x="21" style="fill: rgb(255, 0, 0);"/>
    <rect width="1" height="1" y="11" x="21" style="fill: rgb(255, 0, 0);"/>
    <rect width="1" height="1" y="10" x="21" style="fill: rgb(255, 0, 0);"/>
    <rect width="1" height="1" y="10" x="20" style="fill: rgb(255, 0, 0);"/>
    <rect width="1" height="1" y="9" x="20" style="fill: rgb(255, 0, 0);"/>
    <rect width="1" height="1" y="9" x="21" style="fill: rgb(255, 0, 0);"/>
  </g>
  <rect x="3" width="1" height="1" style="fill: rgba(0, 0, 0, 0.5);"/>
  <rect x="4" width="1" height="1" style="fill: rgba(0, 0, 0, 0.5);"/>
  <rect x="5" width="1" height="1" style="fill: rgba(0, 0, 0, 0.5);"/>
  <rect x="6" width="1" height="1" style="fill: rgba(0, 0, 0, 0.5);"/>
  <rect x="2" width="1" height="1" style="fill: rgba(0, 0, 0, 0.5);" y="1"/>
  <rect x="1" width="1" height="1" style="fill: rgba(0, 0, 0, 0.5);" y="1"/>
  <rect width="1" height="1" style="fill: rgba(0, 0, 0, 0.5);" y="2" x="1"/>
  <rect width="1" height="1" style="fill: rgba(0, 0, 0, 0.5);" y="3"/>
  <rect width="1" height="1" style="fill: rgba(0, 0, 0, 0.5);" y="4"/>
  <rect width="1" height="1" style="fill: rgba(0, 0, 0, 0.5);" y="5"/>
  <rect x="7" width="1" height="1" style="fill: rgba(0, 0, 0, 0.5);" y="1"/>
  <rect x="8" width="1" height="1" style="fill: rgba(0, 0, 0, 0.5);" y="1"/>
  <rect x="8" width="1" height="1" style="fill: rgba(0, 0, 0, 0.5);" y="2"/>
  <rect x="9" width="1" height="1" style="fill: rgba(0, 0, 0, 0.5);" y="3"/>
  <rect x="9" width="1" height="1" style="fill: rgba(0, 0, 0, 0.5);" y="4"/>
  <rect x="9" width="1" height="1" style="fill: rgba(0, 0, 0, 0.5);" y="5"/>
  <rect x="1" width="1" height="1" style="fill: rgba(0, 0, 0, 0.5);" y="6"/>
  <rect x="1" width="1" height="1" style="fill: rgba(0, 0, 0, 0.5);" y="7"/>
  <rect x="2" width="1" height="1" style="fill: rgba(0, 0, 0, 0.5);" y="7"/>
  <rect x="3" width="1" height="1" style="fill: rgba(0, 0, 0, 0.5);" y="8"/>
  <rect x="4" width="1" height="1" style="fill: rgba(0, 0, 0, 0.5);" y="8"/>
  <rect x="5" width="1" height="1" style="fill: rgba(0, 0, 0, 0.5);" y="8"/>
  <rect x="6" width="1" height="1" style="fill: rgba(0, 0, 0, 0.5);" y="8"/>
  <rect x="8" width="1" height="1" style="fill: rgba(0, 0, 0, 0.5);" y="6"/>
  <rect x="8" width="1" height="1" style="fill: rgba(0, 0, 0, 0.5);" y="7"/>
  <rect x="7" width="1" height="1" style="fill: rgba(0, 0, 0, 0.5);" y="7"/>
</svg>