<?xml version="1.0" encoding="utf-8"?>
<svg viewBox="0 0 22 21" xmlns="http://www.w3.org/2000/svg">
  <rect width="1" height="1" x="6"/>
  <rect width="1" height="1" x="5" y="1"/>
  <rect width="1" height="1" x="4" y="2"/>
  <rect width="1" height="1" x="3" y="2"/>
  <rect width="1" height="1" x="3" y="3"/>
  <rect width="1" height="1" x="2" y="4"/>
  <rect width="1" height="1" x="1" y="5"/>
  <rect width="1" height="1" x="1" y="6"/>
  <rect width="1" height="1" y="7"/>
  <rect width="1" height="1" y="7" x="1"/>
  <rect width="1" height="1" y="7" x="2"/>
  <rect width="1" height="1" y="6" x="2"/>
  <rect width="1" height="1" y="5" x="2"/>
  <rect width="1" height="1" y="4" x="3"/>
  <rect width="1" height="1" y="3" x="4"/>
  <rect width="1" height="1" y="5" x="3"/>
  <rect width="1" height="1" y="2" x="5"/>
  <rect width="1" height="1" y="1" x="6"/>
  <rect width="1" height="1" y="2" x="6"/>
  <rect width="1" height="1" x="7"/>
  <rect width="1" height="1" y="1" x="7"/>
  <rect width="1" height="1" y="8"/>
  <rect width="1" height="1" y="8" x="1"/>
  <rect width="1" height="1" x="8"/>
  <rect width="1" height="1" x="9"/>
  <rect width="1" height="1" x="10"/>
  <rect width="1" height="1" x="11"/>
  <rect width="1" height="1" x="12"/>
  <rect width="1" height="1" x="13"/>
  <rect width="1" height="1" x="14"/>
  <rect width="1" height="1" y="1" x="8"/>
  <rect width="1" height="1" y="1" x="9"/>
  <rect width="1" height="1" y="1" x="10"/>
  <rect width="1" height="1" y="1" x="11"/>
  <rect width="1" height="1" y="1" x="12"/>
  <rect width="1" height="1" y="1" x="13"/>
  <rect width="1" height="1" y="1" x="14"/>
  <rect width="1" height="1" x="15"/>
  <rect width="1" height="1" y="1" x="15"/>
  <rect width="1" height="1" y="2" x="15"/>
  <rect width="1" height="1" y="1" x="16"/>
  <rect width="1" height="1" y="2" x="16"/>
  <rect width="1" height="1" y="2" x="17"/>
  <rect width="1" height="1" y="3" x="17"/>
  <rect width="1" height="1" y="3" x="18"/>
  <rect width="1" height="1" y="2" x="18"/>
  <rect width="1" height="1" y="4" x="18"/>
  <rect width="1" height="1" y="5" x="18"/>
  <rect width="1" height="1" y="4" x="19"/>
  <rect width="1" height="1" y="5" x="19"/>
  <rect width="1" height="1" y="6" x="19"/>
  <rect width="1" height="1" y="7" x="19"/>
  <rect width="1" height="1" y="5" x="20"/>
  <rect width="1" height="1" y="6" x="20"/>
  <rect width="1" height="1" y="7" x="20"/>
  <rect width="1" height="1" y="8" x="20"/>
  <rect width="1" height="1" y="7" x="21"/>
  <rect width="1" height="1" y="8" x="21"/>
  <rect width="1" height="1" y="9"/>
  <rect width="1" height="1" y="10"/>
  <rect width="1" height="1" y="11"/>
  <rect width="1" height="1" y="12"/>
  <rect width="1" height="1" y="9" x="1"/>
  <rect width="1" height="1" y="10" x="1"/>
  <rect width="1" height="1" y="11" x="1"/>
  <rect width="1" height="1" y="12" x="1"/>
  <rect width="1" height="1" y="13"/>
  <rect width="1" height="1" y="13" x="1"/>
  <rect width="1" height="1" y="13" x="2"/>
  <rect width="1" height="1" y="14" x="1"/>
  <rect width="1" height="1" y="15" x="1"/>
  <rect width="1" height="1" y="14" x="2"/>
  <rect width="1" height="1" y="15" x="2"/>
  <rect width="1" height="1" y="16" x="2"/>
  <rect width="1" height="1" y="15" x="3"/>
  <rect width="1" height="1" y="16" x="3"/>
  <rect width="1" height="1" y="17" x="3"/>
  <rect width="1" height="1" y="18" x="3"/>
  <rect width="1" height="1" y="17" x="4"/>
  <rect width="1" height="1" y="18" x="4"/>
  <rect width="1" height="1" y="18" x="5"/>
  <rect width="1" height="1" y="19" x="5"/>
  <rect width="1" height="1" y="18" x="6"/>
  <rect width="1" height="1" y="19" x="6"/>
  <rect width="1" height="1" y="20" x="6"/>
  <rect width="1" height="1" y="20" x="7"/>
  <rect width="1" height="1" y="19" x="7"/>
  <rect width="1" height="1" y="20" x="8"/>
  <rect width="1" height="1" y="19" x="8"/>
  <rect width="1" height="1" y="20" x="9"/>
  <rect width="1" height="1" y="19" x="9"/>
  <rect width="1" height="1" y="20" x="10"/>
  <rect width="1" height="1" y="19" x="10"/>
  <rect width="1" height="1" y="20" x="11"/>
  <rect width="1" height="1" y="19" x="11"/>
  <rect width="1" height="1" y="20" x="12"/>
  <rect width="1" height="1" y="19" x="12"/>
  <rect width="1" height="1" y="20" x="13"/>
  <rect width="1" height="1" y="19" x="13"/>
  <rect width="1" height="1" y="20" x="14"/>
  <rect width="1" height="1" y="19" x="14"/>
  <rect width="1" height="1" y="20" x="15"/>
  <rect width="1" height="1" y="19" x="15"/>
  <rect width="1" height="1" y="18" x="15"/>
  <rect width="1" height="1" y="19" x="16"/>
  <rect width="1" height="1" y="18" x="16"/>
  <rect width="1" height="1" y="18" x="17"/>
  <rect width="1" height="1" y="18" x="18"/>
  <rect width="1" height="1" y="17" x="17"/>
  <rect width="1" height="1" y="17" x="18"/>
  <rect width="1" height="1" y="16" x="18"/>
  <rect width="1" height="1" y="15" x="18"/>
  <rect width="1" height="1" y="16" x="19"/>
  <rect width="1" height="1" y="15" x="19"/>
  <rect width="1" height="1" y="14" x="19"/>
  <rect width="1" height="1" y="13" x="19"/>
  <rect width="1" height="1" y="13" x="20"/>
  <rect width="1" height="1" y="13" x="21"/>
  <rect width="1" height="1" y="12" x="20"/>
  <rect width="1" height="1" y="11" x="20"/>
  <rect width="1" height="1" y="14" x="20"/>
  <rect width="1" height="1" y="15" x="20"/>
  <rect width="1" height="1" y="12" x="21"/>
  <rect width="1" height="1" y="11" x="21"/>
  <rect width="1" height="1" y="10" x="21"/>
  <rect width="1" height="1" y="10" x="20"/>
  <rect width="1" height="1" y="9" x="20"/>
  <rect width="1" height="1" y="9" x="21"/>
</svg>